{
    "asset" : {
        "generator" : "Khronos glTF Blender I/O v1.7.33",
        "version" : "2.0"
    },
    "scene" : 0,
    "scenes" : [
        {
            "name" : "Scene",
            "nodes" : [
                0
            ]
        }
    ],
    "nodes" : [
        {
            "mesh" : 0,
            "name" : "Creep",
            "rotation" : [
                0.7071068286895752,
                0,
                0,
                0.7071067094802856
            ]
        }
    ],
    "materials" : [
        {
            "doubleSided" : true,
            "name" : "Body_CreepBody.png",
            "pbrMetallicRoughness" : {
                "baseColorTexture" : {
                    "index" : 0
                },
                "metallicFactor" : 0,
                "roughnessFactor" : 0.6732679605484009
            }
        },
        {
            "doubleSided" : true,
            "name" : "Head_Creep_Face.png",
            "pbrMetallicRoughness" : {
                "baseColorTexture" : {
                    "index" : 1
                },
                "metallicFactor" : 0,
                "roughnessFactor" : 0.6732679605484009
            }
        }
    ],
    "meshes" : [
        {
            "name" : "Creep",
            "primitives" : [
                {
                    "attributes" : {
                        "POSITION" : 0,
                        "NORMAL" : 1,
                        "TEXCOORD_0" : 2
                    },
                    "indices" : 3,
                    "material" : 0
                },
                {
                    "attributes" : {
                        "POSITION" : 4,
                        "NORMAL" : 5,
                        "TEXCOORD_0" : 6
                    },
                    "indices" : 7,
                    "material" : 1
                }
            ]
        }
    ],
    "textures" : [
        {
            "sampler" : 0,
            "source" : 0
        },
        {
            "sampler" : 0,
            "source" : 1
        }
    ],
    "images" : [
        {
            "bufferView" : 4,
            "mimeType" : "image/png",
            "name" : "CreepBody.png",
            "uri" : "./CreepBody.png"
        },
        {
            "bufferView" : 9,
            "mimeType" : "image/png",
            "name" : "Creep_Face.png",
            "uri" : "./Creep_Face.png"
        }
    ],
    "accessors" : [
        {
            "bufferView" : 0,
            "componentType" : 5126,
            "count" : 1415,
            "max" : [
                4.738330841064453,
                1.2256909608840942,
                4.703039169311523
            ],
            "min" : [
                -4.738330841064453,
                -1.2256909608840942,
                -4.703039169311523
            ],
            "type" : "VEC3"
        },
        {
            "bufferView" : 1,
            "componentType" : 5126,
            "count" : 1415,
            "type" : "VEC3"
        },
        {
            "bufferView" : 2,
            "componentType" : 5126,
            "count" : 1415,
            "type" : "VEC2"
        },
        {
            "bufferView" : 3,
            "componentType" : 5123,
            "count" : 6600,
            "type" : "SCALAR"
        },
        {
            "bufferView" : 5,
            "componentType" : 5126,
            "count" : 148,
            "max" : [
                0.6234220266342163,
                0.7547780275344849,
                -4.016839027404785
            ],
            "min" : [
                -0.6234220266342163,
                -0.7591959834098816,
                -5.87887716293335
            ],
            "type" : "VEC3"
        },
        {
            "bufferView" : 6,
            "componentType" : 5126,
            "count" : 148,
            "type" : "VEC3"
        },
        {
            "bufferView" : 7,
            "componentType" : 5126,
            "count" : 148,
            "type" : "VEC2"
        },
        {
            "bufferView" : 8,
            "componentType" : 5123,
            "count" : 816,
            "type" : "SCALAR"
        }
    ],
    "bufferViews" : [
        {
            "buffer" : 0,
            "byteLength" : 16980,
            "byteOffset" : 0
        },
        {
            "buffer" : 0,
            "byteLength" : 16980,
            "byteOffset" : 16980
        },
        {
            "buffer" : 0,
            "byteLength" : 11320,
            "byteOffset" : 33960
        },
        {
            "buffer" : 0,
            "byteLength" : 13200,
            "byteOffset" : 45280
        },
        {
            "buffer" : 0,
            "byteLength" : 90,
            "byteOffset" : 58480
        },
        {
            "buffer" : 0,
            "byteLength" : 1776,
            "byteOffset" : 58572
        },
        {
            "buffer" : 0,
            "byteLength" : 1776,
            "byteOffset" : 60348
        },
        {
            "buffer" : 0,
            "byteLength" : 1184,
            "byteOffset" : 62124
        },
        {
            "buffer" : 0,
            "byteLength" : 1632,
            "byteOffset" : 63308
        },
        {
            "buffer" : 0,
            "byteLength" : 90,
            "byteOffset" : 64940
        }
    ],
    "samplers" : [
        {
            "magFilter" : 9729,
            "minFilter" : 9987
        }
    ],
    "buffers" : [
        {
            "byteLength" : 65032,
            "uri" : "data:application/octet-stream;base64,"
        }
    ]
}
