{"accessors" : [{"bufferView" : 0, "byteOffset" : 0, "componentType" : 5123, "count" : 948, "type" : "SCALAR", "max" : [791], "min" : [0]}, {"bufferView" : 1, "byteOffset" : 0, "componentType" : 5126, "count" : 792, "type" : "VEC3", "max" : [4.432199954986572, 19.365400314331055, 1.3179999589920044], "min" : [-4.505799770355225, 0.7444999814033508, -1.7551000118255615], "name" : "POSITION"}, {"bufferView" : 1, "byteOffset" : 12, "componentType" : 5126, "count" : 792, "type" : "VEC2", "max" : [0.9872999787330627, -0.008899999782443047], "min" : [0.013199999928474426, -0.9884999990463257], "name" : "TEXCOORD_0"}, {"bufferView" : 1, "byteOffset" : 20, "componentType" : 5126, "count" : 792, "type" : "VEC3", "max" : [0.9906080961227417, 0.9110041856765747, 0.9964039325714111], "min" : [-0.9986138939857483, -0.9435045123100281, -0.999748706817627], "name" : "NORMAL"}], "asset" : {"generator" : "Aspose.3D 21.12", "version" : "2.0"}, "buffers" : [{"uri" : "data:application/octet-stream;base64,", "byteLength" : 32240}], "bufferViews" : [{"buffer" : 0, "byteOffset" : 0, "byteLength" : 1896, "target" : 34963}, {"buffer" : 0, "byteOffset" : 1900, "byteLength" : 30336, "byteStride" : 32, "target" : 34962}], "meshes" : [{"primitives" : [{"attributes" : {"POSITION" : 1, "TEXCOORD_0" : 2, "NORMAL" : 3}, "indices" : 0, "mode" : 4}], "name" : ""}], "nodes" : [{"mesh" : 0, "name" : "Plane002"}], "scene" : 0, "scenes" : [{"nodes" : [0]}]}