{"accessors" : [{"bufferView" : 0, "byteOffset" : 0, "componentType" : 5123, "count" : 489, "type" : "SCALAR", "max" : [418], "min" : [0]}, {"bufferView" : 1, "byteOffset" : 0, "componentType" : 5126, "count" : 419, "type" : "VEC3", "max" : [0.08457449078559875, 16.792301177978516, 1.0524225234985352], "min" : [-0.20910631120204926, 1.447408676147461, -4.617438316345215], "name" : "POSITION"}, {"bufferView" : 1, "byteOffset" : 12, "componentType" : 5126, "count" : 419, "type" : "VEC3", "max" : [0.9999873042106628, 0.00035513457260094583, 0.23571477830410004], "min" : [-0.9999872446060181, -0.7091764807701111, -0.9983024597167969], "name" : "NORMAL"}, {"bufferView" : 1, "byteOffset" : 24, "componentType" : 5126, "count" : 419, "type" : "VEC2", "max" : [0.8910720944404602, 1.0172691345214844], "min" : [0, 0.09756088256835938], "name" : "TEXCOORD_0"}, {"bufferView" : 0, "byteOffset" : 980, "componentType" : 5123, "count" : 183, "type" : "SCALAR", "max" : [153], "min" : [0]}, {"bufferView" : 2, "byteOffset" : 0, "componentType" : 5126, "count" : 154, "type" : "VEC3", "max" : [0.08457449078559875, 16.792301177978516, -0.6338570713996887], "min" : [-0.20910631120204926, 1.462890863418579, -4.917993545532227], "name" : "POSITION"}, {"bufferView" : 2, "byteOffset" : 12, "componentType" : 5126, "count" : 154, "type" : "VEC3", "max" : [0.9383081793785095, 0.5005730390548706, 0.999732255935669], "min" : [-0.9382251501083374, -0.0842965766787529, 0.2979494631290436], "name" : "NORMAL"}, {"bufferView" : 2, "byteOffset" : 24, "componentType" : 5126, "count" : 154, "type" : "VEC2", "max" : [0.8500431180000305, 0.515224039554596], "min" : [0.429852694272995, 0.26699990034103394], "name" : "TEXCOORD_0"}, {"bufferView" : 0, "byteOffset" : 1348, "componentType" : 5123, "count" : 1131, "type" : "SCALAR", "max" : [962], "min" : [0]}, {"bufferView" : 3, "byteOffset" : 0, "componentType" : 5126, "count" : 963, "type" : "VEC3", "max" : [0.6475387215614319, 0.8924846649169922, 0.6159006357192993], "min" : [-0.778063952922821, -3.425355911254883, 0.20437651872634888], "name" : "POSITION"}, {"bufferView" : 3, "byteOffset" : 12, "componentType" : 5126, "count" : 963, "type" : "VEC3", "max" : [1.0000044107437134, 0.6357815861701965, 0.5767098665237427], "min" : [-1.0000044107437134, -0.63579922914505, -0.5767121315002441], "name" : "NORMAL"}, {"bufferView" : 3, "byteOffset" : 24, "componentType" : 5126, "count" : 963, "type" : "VEC2", "max" : [1.0000001192092896, 0.911797046661377], "min" : [0, 0.19911843538284302], "name" : "TEXCOORD_0"}, {"bufferView" : 0, "byteOffset" : 3612, "componentType" : 5123, "count" : 1650, "type" : "SCALAR", "max" : [1388], "min" : [0]}, {"bufferView" : 4, "byteOffset" : 0, "componentType" : 5126, "count" : 1389, "type" : "VEC3", "max" : [0.5859066843986511, 14.217254638671875, 1.1845321655273438], "min" : [-0.7374677062034607, -4.166038513183594, -4.917993545532227], "name" : "POSITION"}, {"bufferView" : 4, "byteOffset" : 12, "componentType" : 5126, "count" : 1389, "type" : "VEC3", "max" : [0.9521216154098511, 1.0000044107437134, 0.9278121590614319], "min" : [-0.9522766470909119, -1.0000044107437134, -0.9999960660934448], "name" : "NORMAL"}, {"bufferView" : 4, "byteOffset" : 24, "componentType" : 5126, "count" : 1389, "type" : "VEC2", "max" : [0.8785436153411865, 1], "min" : [0, 0], "name" : "TEXCOORD_0"}, {"bufferView" : 0, "byteOffset" : 6912, "componentType" : 5123, "count" : 636, "type" : "SCALAR", "max" : [529], "min" : [0]}, {"bufferView" : 5, "byteOffset" : 0, "componentType" : 5126, "count" : 530, "type" : "VEC3", "max" : [0.5859066843986511, 1.343515157699585, 1.1845321655273438], "min" : [-0.7374677062034607, -4.0494232177734375, -0.6683447957038879], "name" : "POSITION"}, {"bufferView" : 5, "byteOffset" : 12, "componentType" : 5126, "count" : 530, "type" : "VEC3", "max" : [1.0000044107437134, 0.18894244730472565, 1.0000044107437134], "min" : [-1.0000042915344238, -0.5519084334373474, -1.0000044107437134], "name" : "NORMAL"}, {"bufferView" : 5, "byteOffset" : 24, "componentType" : 5126, "count" : 530, "type" : "VEC2", "max" : [0.6189137101173401, 0.9847742915153503], "min" : [0.3810864984989166, 0.02138155698776245], "name" : "TEXCOORD_0"}], "asset" : {"generator" : "Aspose.3D 21.12", "version" : "2.0"}, "buffers" : [{"uri" : "data:application/octet-stream;base64,", "byteLength" : 139056}], "bufferViews" : [{"buffer" : 0, "byteOffset" : 0, "byteLength" : 8184, "target" : 34963}, {"buffer" : 0, "byteOffset" : 8188, "byteLength" : 15648, "byteStride" : 32, "target" : 34962}, {"buffer" : 0, "byteOffset" : 23840, "byteLength" : 5856, "byteStride" : 32, "target" : 34962}, {"buffer" : 0, "byteOffset" : 29700, "byteLength" : 36192, "byteStride" : 32, "target" : 34962}, {"buffer" : 0, "byteOffset" : 65896, "byteLength" : 52800, "byteStride" : 32, "target" : 34962}, {"buffer" : 0, "byteOffset" : 118700, "byteLength" : 20352, "byteStride" : 32, "target" : 34962}], "images" : [{"uri" : "data:image/jpeg;base64,"}], "materials" : [{"name" : "skins", "pbrMetallicRoughness" : {"baseColorFactor" : [1, 1, 1, 1], "baseColorTexture" : {"index" : 0, "texCoord" : 0}, "metallicFactor" : 1, "roughnessFactor" : 0.4113923907279968}, "emissiveFactor" : [0, 0, 0], "alphaMode" : "OPAQUE", "doubleSided" : true}, {"name" : "Material.003", "pbrMetallicRoughness" : {"baseColorFactor" : [1, 1, 1, 1], "metallicFactor" : 1, "roughnessFactor" : 0.24683544039726257}, "emissiveFactor" : [0, 0, 0], "alphaMode" : "OPAQUE", "doubleSided" : true}, {"name" : "Material.004", "pbrMetallicRoughness" : {"baseColorFactor" : [1, 1, 1, 1], "metallicFactor" : 0.746835470199585, "roughnessFactor" : 0.42405062913894653}, "emissiveFactor" : [0, 0, 0], "alphaMode" : "OPAQUE", "doubleSided" : true}, {"name" : "Material.005", "pbrMetallicRoughness" : {"baseColorFactor" : [0.04954914376139641, 0.04954914376139641, 0.04954914376139641, 1], "metallicFactor" : 0.2405063509941101, "roughnessFactor" : 0.7974683046340942}, "emissiveFactor" : [0, 0, 0], "alphaMode" : "OPAQUE", "doubleSided" : true}, {"name" : "Material.006", "pbrMetallicRoughness" : {"baseColorFactor" : [0, 0, 0, 1], "metallicFactor" : 0, "roughnessFactor" : 0.5}, "emissiveFactor" : [0, 0, 0], "alphaMode" : "OPAQUE", "doubleSided" : true}], "meshes" : [{"primitives" : [{"attributes" : {"POSITION" : 1, "NORMAL" : 2, "TEXCOORD_0" : 3}, "indices" : 0, "material" : 0, "mode" : 4}, {"attributes" : {"POSITION" : 5, "NORMAL" : 6, "TEXCOORD_0" : 7}, "indices" : 4, "material" : 1, "mode" : 4}, {"attributes" : {"POSITION" : 9, "NORMAL" : 10, "TEXCOORD_0" : 11}, "indices" : 8, "material" : 2, "mode" : 4}, {"attributes" : {"POSITION" : 13, "NORMAL" : 14, "TEXCOORD_0" : 15}, "indices" : 12, "material" : 3, "mode" : 4}, {"attributes" : {"POSITION" : 17, "NORMAL" : 18, "TEXCOORD_0" : 19}, "indices" : 16, "material" : 4, "mode" : 4}]}], "nodes" : [{"matrix" : [1, 0, 0, 0, 0, 1, 0, 0, 0, 0, 1, 0, -5.139914035797119, 14.390856742858887, -6.915062427520752, 1], "mesh" : 0, "name" : "Cube.001"}], "samplers" : [{"magFilter" : 9729, "minFilter" : 9987, "wrapS" : 10497, "wrapT" : 10497}], "scene" : 0, "scenes" : [{"nodes" : [0]}], "textures" : [{"sampler" : 0, "source" : 0}]}