{"accessors" : [{"bufferView" : 0, "byteOffset" : 0, "componentType" : 5123, "count" : 2400, "type" : "SCALAR", "max" : [2026], "min" : [0]}, {"bufferView" : 1, "byteOffset" : 0, "componentType" : 5126, "count" : 2027, "type" : "VEC3", "max" : [27.37909698486328, 0.9930782318115234, 5.237271308898926], "min" : [-27.14327049255371, -2.980232238769531E-07, -1.6162574291229248], "name" : "POSITION"}, {"bufferView" : 1, "byteOffset" : 12, "componentType" : 5126, "count" : 2027, "type" : "VEC3", "max" : [0.9999954700469971, 1.0000044107437134, 1.0000044107437134], "min" : [-0.9998786449432373, -1.0000044107437134, -0.9999977350234985], "name" : "NORMAL"}, {"bufferView" : 1, "byteOffset" : 24, "componentType" : 5126, "count" : 2027, "type" : "VEC2", "max" : [1, 1], "min" : [0, 0], "name" : "TEXCOORD_0"}, {"bufferView" : 0, "byteOffset" : 4800, "componentType" : 5123, "count" : 642, "type" : "SCALAR", "max" : [547], "min" : [0]}, {"bufferView" : 2, "byteOffset" : 0, "componentType" : 5126, "count" : 548, "type" : "VEC3", "max" : [1, 17.476755142211914, 1.0870449542999268], "min" : [-18.76537322998047, 17.02207374572754, -1.310305118560791], "name" : "POSITION"}, {"bufferView" : 2, "byteOffset" : 12, "componentType" : 5126, "count" : 548, "type" : "VEC3", "max" : [1.0000044107437134, 1.0000044107437134, 1.0000044107437134], "min" : [-0.23576675355434418, -1.0000044107437134, -1.0000044107437134], "name" : "NORMAL"}, {"bufferView" : 2, "byteOffset" : 24, "componentType" : 5126, "count" : 548, "type" : "VEC2", "max" : [1, 1], "min" : [0, 0], "name" : "TEXCOORD_0"}, {"bufferView" : 0, "byteOffset" : 6084, "componentType" : 5123, "count" : 24840, "type" : "SCALAR", "max" : [21330], "min" : [0]}, {"bufferView" : 3, "byteOffset" : 0, "componentType" : 5126, "count" : 21331, "type" : "VEC3", "max" : [1, 1.3239402770996094, 1], "min" : [-1, -11.158737182617188, -1.0199618339538574], "name" : "POSITION"}, {"bufferView" : 3, "byteOffset" : 12, "componentType" : 5126, "count" : 21331, "type" : "VEC3", "max" : [0.9998810887336731, 1.0000044107437134, 0.9998810887336731], "min" : [-0.9998810887336731, -1.0000042915344238, -0.9998810887336731], "name" : "NORMAL"}, {"bufferView" : 3, "byteOffset" : 24, "componentType" : 5126, "count" : 21331, "type" : "VEC2", "max" : [0.7285588979721069, 0.7285586595535278], "min" : [0.27144110202789307, 0.27144086360931396], "name" : "TEXCOORD_0"}, {"bufferView" : 0, "byteOffset" : 55764, "componentType" : 5123, "count" : 30, "type" : "SCALAR", "max" : [27], "min" : [0]}, {"bufferView" : 4, "byteOffset" : 0, "componentType" : 5126, "count" : 28, "type" : "VEC3", "max" : [5.722434997558594, 0, 1], "min" : [-1, -0.16890236735343933, -1.2072010040283203], "name" : "POSITION"}, {"bufferView" : 4, "byteOffset" : 12, "componentType" : 5126, "count" : 28, "type" : "VEC3", "max" : [0.06544472277164459, 0.9999673962593079, 0.006234928499907255], "min" : [-0.02347331866621971, 0.9978594779968262, -0.008189139887690544], "name" : "NORMAL"}, {"bufferView" : 4, "byteOffset" : 24, "componentType" : 5126, "count" : 28, "type" : "VEC2", "max" : [1, 1], "min" : [0, 0], "name" : "TEXCOORD_0"}, {"bufferView" : 0, "byteOffset" : 55824, "componentType" : 5123, "count" : 30, "type" : "SCALAR", "max" : [27], "min" : [0]}, {"bufferView" : 5, "byteOffset" : 0, "componentType" : 5126, "count" : 28, "type" : "VEC3", "max" : [5.722434997558594, 0.12017923593521118, 1], "min" : [-1, -0.04691733419895172, -1.2072010040283203], "name" : "POSITION"}, {"bufferView" : 5, "byteOffset" : 12, "componentType" : 5126, "count" : 28, "type" : "VEC3", "max" : [0.018970103934407234, 0.999864399433136, 0.02704140916466713], "min" : [-0.057587880641222, 0.998034656047821, 0.013289947994053364], "name" : "NORMAL"}, {"bufferView" : 5, "byteOffset" : 24, "componentType" : 5126, "count" : 28, "type" : "VEC2", "max" : [1, 1], "min" : [0, 0], "name" : "TEXCOORD_0"}], "asset" : {"generator" : "Aspose.3D 21.12", "version" : "2.0"}, "buffers" : [{"uri" : "data:application/octet-stream;base64,", "byteLength" : 950052}], "bufferViews" : [{"buffer" : 0, "byteOffset" : 0, "byteLength" : 55884, "target" : 34963}, {"buffer" : 0, "byteOffset" : 55888, "byteLength" : 76800, "byteStride" : 32, "target" : 34962}, {"buffer" : 0, "byteOffset" : 132692, "byteLength" : 20544, "byteStride" : 32, "target" : 34962}, {"buffer" : 0, "byteOffset" : 153240, "byteLength" : 794880, "byteStride" : 32, "target" : 34962}, {"buffer" : 0, "byteOffset" : 948124, "byteLength" : 960, "byteStride" : 32, "target" : 34962}, {"buffer" : 0, "byteOffset" : 949088, "byteLength" : 960, "byteStride" : 32, "target" : 34962}], "materials" : [{"name" : "Material.005", "pbrMetallicRoughness" : {"baseColorFactor" : [0.2882955074310303, 0.2882955074310303, 0.2882955074310303, 1], "metallicFactor" : 1, "roughnessFactor" : 0.5}, "emissiveFactor" : [0, 0, 0], "alphaMode" : "OPAQUE", "doubleSided" : true}, {"name" : "Material.004", "pbrMetallicRoughness" : {"baseColorFactor" : [0.4385427236557007, 0.4385427236557007, 0.4385427236557007, 1], "metallicFactor" : 1, "roughnessFactor" : 0.5}, "emissiveFactor" : [0, 0, 0], "alphaMode" : "OPAQUE", "doubleSided" : true}, {"name" : "Material.003", "pbrMetallicRoughness" : {"baseColorFactor" : [0.17335589230060577, 0.00857402291148901, 0.010310560464859009, 1], "metallicFactor" : 0, "roughnessFactor" : 1}, "emissiveFactor" : [0, 0, 0], "alphaMode" : "OPAQUE", "doubleSided" : true}, {"name" : "Material.001", "pbrMetallicRoughness" : {"baseColorFactor" : [0, 0, 0, 1], "metallicFactor" : 0, "roughnessFactor" : 0.5}, "emissiveFactor" : [0, 0, 0], "alphaMode" : "OPAQUE", "doubleSided" : true}, {"name" : "Material.001", "pbrMetallicRoughness" : {"baseColorFactor" : [0, 0, 0, 1], "metallicFactor" : 0, "roughnessFactor" : 0.5}, "emissiveFactor" : [0, 0, 0], "alphaMode" : "OPAQUE", "doubleSided" : true}], "meshes" : [{"primitives" : [{"attributes" : {"POSITION" : 1, "NORMAL" : 2, "TEXCOORD_0" : 3}, "indices" : 0, "material" : 0, "mode" : 4}]}, {"primitives" : [{"attributes" : {"POSITION" : 5, "NORMAL" : 6, "TEXCOORD_0" : 7}, "indices" : 4, "material" : 1, "mode" : 4}]}, {"primitives" : [{"attributes" : {"POSITION" : 9, "NORMAL" : 10, "TEXCOORD_0" : 11}, "indices" : 8, "material" : 2, "mode" : 4}]}, {"primitives" : [{"attributes" : {"POSITION" : 13, "NORMAL" : 14, "TEXCOORD_0" : 15}, "indices" : 12, "material" : 3, "mode" : 4}]}, {"primitives" : [{"attributes" : {"POSITION" : 17, "NORMAL" : 18, "TEXCOORD_0" : 19}, "indices" : 16, "material" : 4, "mode" : 4}]}], "nodes" : [{"matrix" : [0.4870501756668091, 0, 0, 0, 0, 0.3854197819516575, 0.29777418131753997, 0, 0, -0.29777418131753997, 0.3854197819516575, 0, 21.549175262451172, 5.1274824142456055, -2.83331298828125, 1], "mesh" : 0, "name" : "Plane"}, {"matrix" : [0.7896589040756226, 0, 0, 0, 0, 0.6248846172949892, 0.4827840034331156, 0, 0, -0.9045476924370883, 1.1707884573518663, 0, 20.188953399658203, -6.058094024658203, -10.24019718170166, 1], "mesh" : 1, "name" : "Plane.001"}, {"matrix" : [1.558409073425668E-07, 0.6748356349912913, 0.5213760159496877, 0, -1.0096925505682421, -0.007863872226792171, 0.010178803497108481, 0, 0.022726203842927215, -1.0906830683821545, 1.4117100636142015, 0, 22.288732528686523, 4.686822891235352, -1.8966894149780273, 1], "mesh" : 2, "name" : "Cylinder"}, {"matrix" : [1.7040455341339111, 0, 0, 0, 0, 0.758921913437142, 0.5863408212037, 0, 0, -0.8838905243316105, 1.1440511452325801, 0, 22.954925537109375, 5.064034938812256, -1.6651177406311035, 1], "mesh" : 3, "name" : "Plane.002"}, {"matrix" : [1.7040455341339111, 0, 0, 0, 0, 0.758921913437142, 0.5863408212037, 0, 0, -0.8838905243316105, 1.1440511452325801, 0, 22.954925537109375, 4.4031548500061035, -2.1757118701934814, 1], "mesh" : 4, "name" : "Plane.003"}], "scene" : 0, "scenes" : [{"nodes" : [0, 1, 2, 3, 4]}]}